<svg width="64" height="64" viewBox="0 0 64 64" fill="none" xmlns="http://www.w3.org/2000/svg">
<path d="M57.2926 0H6.70742C2.98108 0 0 2.98108 0 6.70742V57.2926C0 61.0189 2.98108 64 6.70742 64H57.1994C60.9258 64 63.9068 61.0189 63.9068 57.2926V6.70742C64 2.98108 61.0189 0 57.2926 0ZM43.0393 52.6346L39.4993 42.4804H27.2955C27.2955 42.4804 27.4818 41.7351 27.7613 41.1761C28.0408 40.6172 27.9476 40.0582 27.4818 39.9651C27.016 39.8719 27.1092 39.4061 27.3886 39.2198C27.6681 39.0335 28.4134 38.754 30.1834 37.9156C31.9534 37.0771 30.8355 36.425 30.2766 36.0524C29.9971 35.7729 29.8108 35.4003 29.9039 34.9345H36.7045L32.0466 21.706L27.6681 34.0961C27.6681 34.0961 27.1092 35.4003 27.7613 35.9592C28.4134 36.5182 29.5313 36.984 27.6681 37.8224C25.805 38.6608 25.1528 38.9403 24.8734 39.1266C24.5939 39.313 24.4076 39.7787 24.9665 39.8719C25.5255 39.9651 25.4323 40.524 25.246 41.083L24.8734 41.9214L21.147 52.5415H13.1354L16.8617 42.0146L17.2344 41.083C17.4207 40.524 17.4207 39.9651 16.9549 39.8719C16.4891 39.7787 16.7686 39.313 17.048 39.1266C17.3275 38.9403 18.0728 38.6608 19.8428 37.8224C21.6128 36.984 20.4949 36.3319 19.936 35.9592C19.377 35.5866 19.8428 34.0961 19.8428 34.0961L19.936 33.9098L28.2271 10.2475H36.2387L44.623 34.1892C44.623 34.2824 44.623 34.2824 44.7162 34.3755C44.9956 35.0277 45.4614 35.5866 46.0204 35.9592C47.1383 36.7045 49.4673 37.0771 47.6972 37.9156C46.952 38.1951 46.2067 38.5677 45.5546 39.0335C45.2751 39.2198 45.2751 39.6856 45.8341 39.9651C46.393 40.2445 46.8588 40.3377 47.0451 40.9898C47.2314 41.6419 47.3246 41.9214 47.3246 41.9214V42.0146L51.0509 52.6346H43.0393Z" fill="url(#paint0_linear)"/>
<defs>
<linearGradient id="paint0_linear" x1="32.0047" y1="0" x2="32.0047" y2="64.0093" gradientUnits="userSpaceOnUse">
<stop stop-color="#C6C6C6"/>
<stop offset="1" stop-color="#575756"/>
</linearGradient>
</defs>
</svg>
